/* XPM */
static char *perl__[] = {
/* columns rows colors chars-per-pixel */
"16 16 71 1",
"  c gray27",
". c #625549",
"X c #6D5F52",
"o c #716C5F",
"O c #736D62",
"+ c #7D7A74",
"@ c #8A836F",
"# c #878478",
"$ c #8B887E",
"% c #808080",
"& c #959484",
"* c #99968A",
"= c #9C9C88",
"- c #A1A191",
"; c #A2A094",
": c #A7A79D",
"> c #AEAC9B",
", c #A8A99C",
"< c #AEAC9E",
"1 c #A5A9A1",
"2 c #AEADA0",
"3 c #AEAFAA",
"4 c #B0AFA8",
"5 c #B1B4A6",
"6 c #B3B3AA",
"7 c #B2B4AE",
"8 c #B8B9AC",
"9 c #B3B8B2",
"0 c #B6BAB2",
"q c #BDBBB3",
"w c #BABDB0",
"e c #BABCB4",
"r c #BCBFB7",
"t c #B8B9B9",
"y c #BDBFBC",
"u c #C1C4B8",
"i c #C5C5B9",
"p c #C8C7BB",
"a c #BFC0D6",
"s c #C2C4C3",
"d c #C7C8C2",
"f c #CACCC1",
"g c #C9CCC5",
"h c #CECDC7",
"j c #D4D5C7",
"k c #CBCBDF",
"l c #D0D1D1",
"z c #DCDDD3",
"x c #D9DBD6",
"c c #DCDDD6",
"v c #DFE1D8",
"b c #CCCCE1",
"n c #D4D4E7",
"m c #D7D7E7",
"M c #D0D0E8",
"N c #D0D0EA",
"B c #D5D5EA",
"V c #D8D8E9",
"C c #E5E5E0",
"Z c #E5E6E3",
"A c #E8E7E0",
"S c #E7E9E4",
"D c #EEEFEC",
"F c #F1F1F2",
"G c #F4F4F3",
"H c #F5F4F3",
"J c #F5F6F4",
"K c #F9F9F9",
"L c #FEFEFA",
"P c #FBFBFC",
"I c #FEFEFE",
/* pixels */
"%%%%%%%%%%%%%%%%",
"%    mLKKKIKKKI%",
"%    VIIIIIIIII%",
"%    BIPZxcZIII%",
"%    BLdgZAi8HI%",
"%    Nj0SvJA=8I%",
"%    k59u--p>-H%",
"%    aw1&X.@<<D%",
"%    bf0:$#*6qH%",
"%    Mz7r00e6hI%",
"%    NL3-,,;4FI%",
"%    NIs+oO+yKI%",
"%    mIFlytlHII%",
"%    VIIIIIIIII%",
"%    VIKIIIIKII%",
"%%%%%%%%%%%%%%%%"
};
