<?xml version="1.0" encoding="UTF-8" standalone="no"?>
<!-- Created with Inkscape (http://www.inkscape.org/) -->

<svg
   xmlns:dc="http://purl.org/dc/elements/1.1/"
   xmlns:cc="http://creativecommons.org/ns#"
   xmlns:rdf="http://www.w3.org/1999/02/22-rdf-syntax-ns#"
   xmlns:svg="http://www.w3.org/2000/svg"
   xmlns="http://www.w3.org/2000/svg"
   xmlns:sodipodi="http://sodipodi.sourceforge.net/DTD/sodipodi-0.dtd"
   xmlns:inkscape="http://www.inkscape.org/namespaces/inkscape"
   width="744.09448819"
   height="1052.3622047"
   id="svg2"
   version="1.1"
   inkscape:version="0.47 r22583"
   sodipodi:docname="polygon4.svg">
  <defs
     id="defs4">
    <inkscape:path-effect
       effect="spiro"
       id="path-effect3595"
       is_visible="true" />
    <inkscape:perspective
       sodipodi:type="inkscape:persp3d"
       inkscape:vp_x="0 : 526.18109 : 1"
       inkscape:vp_y="0 : 1000 : 0"
       inkscape:vp_z="744.09448 : 526.18109 : 1"
       inkscape:persp3d-origin="372.04724 : 350.78739 : 1"
       id="perspective10" />
  </defs>
  <sodipodi:namedview
     id="base"
     pagecolor="#ffffff"
     bordercolor="#666666"
     borderopacity="1.0"
     inkscape:pageopacity="0.0"
     inkscape:pageshadow="2"
     inkscape:zoom="1.5498615"
     inkscape:cx="359.67075"
     inkscape:cy="190.90295"
     inkscape:document-units="px"
     inkscape:current-layer="layer1"
     showgrid="false"
     inkscape:window-width="1024"
     inkscape:window-height="742"
     inkscape:window-x="0"
     inkscape:window-y="0"
     inkscape:window-maximized="1" />
  <metadata
     id="metadata7">
    <rdf:RDF>
      <cc:Work
         rdf:about="">
        <dc:format>image/svg+xml</dc:format>
        <dc:type
           rdf:resource="http://purl.org/dc/dcmitype/StillImage" />
        <dc:title></dc:title>
      </cc:Work>
    </rdf:RDF>
  </metadata>
  <g
     inkscape:label="Layer 1"
     inkscape:groupmode="layer"
     id="layer1">
    <path
       style="fill:none;stroke:#000000;stroke-width:1px;stroke-linecap:butt;stroke-linejoin:miter;stroke-opacity:1"
       d="m 187.94613,762.16621 c 0,0 42.11687,100.7095 42.11687,100.7095 0,0 94.05625,55.40448 94.05625,55.40448 0,0 108.50138,-11.98677 108.50138,-11.98677 0,0 79.69395,-74.59964 79.69395,-74.59964 0,0 75.88305,-88.55373 75.88305,-88.55373 0,0 76.60236,66.59251 76.60236,66.59251 0,0 -19.09671,71.61 -55.90812,84.71579 -59.55533,14.92426 -118.0509,34.07579 -174.90099,57.26281 -33.7605,13.76965 -102.58222,37.63189 -102.58222,37.63189 0,0 -108.11724,0.36292 -108.11724,0.36292 0,0 -88.24827,-61.33354 -88.24827,-61.33354 0,0 -34.33203,-64.13585 -45.46425,-98.85541 L 63.047435,746.7698 c 0,0 124.898695,15.39641 124.898695,15.39641 z"
       id="path3625"
       sodipodi:nodetypes="ccccccccscccccc" />
  </g>
</svg>
