<?xml version="1.0" encoding="UTF-8" standalone="no"?>
<!-- Created with Inkscape (http://www.inkscape.org/) -->

<svg
   xmlns:dc="http://purl.org/dc/elements/1.1/"
   xmlns:cc="http://creativecommons.org/ns#"
   xmlns:rdf="http://www.w3.org/1999/02/22-rdf-syntax-ns#"
   xmlns:svg="http://www.w3.org/2000/svg"
   xmlns="http://www.w3.org/2000/svg"
   xmlns:sodipodi="http://sodipodi.sourceforge.net/DTD/sodipodi-0.dtd"
   xmlns:inkscape="http://www.inkscape.org/namespaces/inkscape"
   width="219.60123"
   height="348.08673"
   id="svg2"
   version="1.1"
   inkscape:version="0.47 r22583"
   sodipodi:docname="milling_conventional.svg">
  <title
     id="title4991">Conventional milling</title>
  <defs
     id="defs4">
    <inkscape:perspective
       sodipodi:type="inkscape:persp3d"
       inkscape:vp_x="0 : 526.18109 : 1"
       inkscape:vp_y="0 : 1000 : 0"
       inkscape:vp_z="744.09448 : 526.18109 : 1"
       inkscape:persp3d-origin="372.04724 : 350.78739 : 1"
       id="perspective10" />
    <inkscape:perspective
       id="perspective2905"
       inkscape:persp3d-origin="0.5 : 0.33333333 : 1"
       inkscape:vp_z="1 : 0.5 : 1"
       inkscape:vp_y="0 : 1000 : 0"
       inkscape:vp_x="0 : 0.5 : 1"
       sodipodi:type="inkscape:persp3d" />
    <inkscape:perspective
       id="perspective3629"
       inkscape:persp3d-origin="885.82678 : 366.14172 : 1"
       inkscape:vp_z="1771.6536 : 549.21259 : 1"
       inkscape:vp_y="0 : 1000 : 0"
       inkscape:vp_x="0 : 549.21259 : 1"
       sodipodi:type="inkscape:persp3d" />
  </defs>
  <sodipodi:namedview
     id="base"
     pagecolor="#ffffff"
     bordercolor="#666666"
     borderopacity="1.0"
     inkscape:pageopacity="0.0"
     inkscape:pageshadow="2"
     inkscape:zoom="0.39466092"
     inkscape:cx="-252.50526"
     inkscape:cy="160.82661"
     inkscape:document-units="px"
     inkscape:current-layer="layer1"
     showgrid="false"
     inkscape:window-width="1024"
     inkscape:window-height="742"
     inkscape:window-x="0"
     inkscape:window-y="0"
     inkscape:window-maximized="1" />
  <metadata
     id="metadata7">
    <rdf:RDF>
      <cc:Work
         rdf:about="">
        <dc:format>image/svg+xml</dc:format>
        <dc:type
           rdf:resource="http://purl.org/dc/dcmitype/StillImage" />
        <cc:license
           rdf:resource="http://creativecommons.org/licenses/by-sa/3.0/" />
        <dc:title>Conventional milling</dc:title>
        <dc:date>2010-10-15</dc:date>
        <dc:creator>
          <cc:Agent>
            <dc:title>Lars Kruse</dc:title>
          </cc:Agent>
        </dc:creator>
        <dc:rights>
          <cc:Agent>
            <dc:title>Lars Kruse</dc:title>
          </cc:Agent>
        </dc:rights>
      </cc:Work>
      <cc:License
         rdf:about="http://creativecommons.org/licenses/by-sa/3.0/">
        <cc:permits
           rdf:resource="http://creativecommons.org/ns#Reproduction" />
        <cc:permits
           rdf:resource="http://creativecommons.org/ns#Distribution" />
        <cc:requires
           rdf:resource="http://creativecommons.org/ns#Notice" />
        <cc:requires
           rdf:resource="http://creativecommons.org/ns#Attribution" />
        <cc:permits
           rdf:resource="http://creativecommons.org/ns#DerivativeWorks" />
        <cc:requires
           rdf:resource="http://creativecommons.org/ns#ShareAlike" />
      </cc:License>
    </rdf:RDF>
  </metadata>
  <g
     inkscape:label="Layer 1"
     inkscape:groupmode="layer"
     id="layer1"
     transform="translate(-156.42756,-565.52487)">
    <g
       id="g4983">
      <g
         id="g4977">
        <g
           id="g4973">
          <path
             id="path4867"
             d="m 223.1501,729.33616 c 0,0 12.36485,2.48988 15.1824,2.47931 2.38777,-0.009 3.45489,-0.27662 5.267,-1.32134 2.80742,-1.61847 4.14074,-3.98928 5.29063,-9.40744 1.96093,-9.2397 4.58328,-15.56549 9.03034,-21.78365 7.21992,-10.09535 16.28051,-16.46587 28.37008,-19.94709 3.28558,-0.94613 4.90472,-1.10195 11.35645,-1.09316 6.85504,0.009 7.9303,0.13089 12.08486,1.3654 8.92434,2.6518 13.67316,5.40115 21.79346,12.61728 8.47064,7.52748 11.49701,9.37731 30.56853,18.68466 7.73853,3.77662 12.87021,6.55205 13.15646,7.11557 0.72148,1.42041 1.09508,12.35329 0.43679,12.78193 -0.29469,0.19191 -4.4814,-0.38054 -9.3038,-1.27203 -5.42771,-1.00345 -9.50693,-1.52367 -10.70761,-1.36559 -3.71621,0.48923 -7.04687,3.06655 -8.18761,6.33564 -0.26584,0.76186 -0.99641,3.676 -1.62348,6.47589 -2.3697,10.58069 -6.59387,18.6332 -13.54099,25.81311 -13.76461,14.22589 -32.56459,18.94359 -50.29128,12.62025 -7.2401,-2.58266 -10.62852,-4.77089 -19.731,-12.7421 -2.69656,-2.3614 -6.97982,-5.60473 -9.51835,-7.20734 -4.58224,-2.89277 -30.15662,-15.0826 -30.15662,-15.0826 0,0 0.52374,-15.0667 0.52374,-15.0667 z"
             style="fill:#feaf35;fill-opacity:1"
             sodipodi:nodetypes="cssssssssssssssssssscc" />
          <path
             id="path4869"
             d="m 324.38471,744.60176 c -3.68317,-5.53078 -16.95443,-18.40992 -16.75335,-18.90722 0.18042,-0.44632 6.71595,-1.04421 8.75071,-1.04421 3.35985,0 3.42981,-0.15071 2.18126,-4.70019 -1.74753,-6.36778 -5.84031,-11.05787 -12.1217,-13.89088 -3.3881,-1.52807 -4.18854,-1.70178 -8.54323,-1.85404 -4.02187,-0.14063 -5.27464,-0.007 -7.68778,0.82171 -1.58561,0.54434 -3.30517,1.0267 -3.82131,1.0719 -0.91974,0.0805 -2.22989,-1.65104 -5.57844,-7.37275 l -1.16023,-1.98255 1.12069,-0.8613 c 1.52246,-1.17008 8.11579,-3.09556 12.7127,-3.71257 9.84958,-1.32202 23.08058,3.61011 29.58525,11.02847 4.8582,5.5406 7.93432,12.22291 8.56159,18.59852 l 0.2808,2.85368 3.02528,0 c 1.66393,0 9.16849,-0.22886 9.31149,-0.009 0.37651,0.57816 -17.83939,20.98676 -18.56824,20.98676 -0.33668,0 -0.91965,-0.46173 -1.29549,-1.02607 z"
             style="fill:#010100;fill-opacity:1"
             sodipodi:nodetypes="cssssssscccsscccssc" />
        </g>
        <path
           id="path4871"
           d="m 336.10626,850.47842 -24.03083,-0.2012 0,29.13355 c 0,21.63044 -0.14852,29.37206 -0.57659,30.05965 -0.38977,0.62604 -2.616,0.9261 -6.87095,0.9261 -4.25499,0 -6.48118,-0.30006 -6.87095,-0.9261 -0.42816,-0.68763 -0.57658,-8.43777 -0.57658,-30.09816 l 0,-16.13189 0,-13.04017 c 0,0 -24.09398,-0.19663 -24.09398,-0.19663 0,0 31.47578,-37.47328 31.47578,-37.47328 0,0 31.5441,37.94813 31.5441,37.94813 z"
           style="fill:#010100;fill-opacity:1"
           sodipodi:nodetypes="cccssscccccc" />
      </g>
      <path
         style="opacity:0.33000004;fill:#010100;fill-opacity:1;stroke:none"
         d="m 356.42756,569.64363 0,58.36404 c -79.54937,0 -144.04838,64.43908 -144.14582,143.96564 -1e-4,0.0602 0,0.12 0,0.18018 l 0,141.4581 -52.64326,0 c 0,0 6.72681,-27.2973 6.72681,-42.996 0,-15.69869 -7.68778,-27.29729 -7.68778,-42.99599 0,-15.6987 7.68778,-27.2973 7.68778,-42.996 0,-15.69869 -7.68778,-27.29729 -7.68778,-42.99599 0,-15.6987 7.68778,-27.2973 7.68778,-42.99599 0,-15.6987 -7.68778,-27.2973 -7.68778,-42.996 0,-15.6987 7.68778,-27.2973 7.68778,-42.996 0,-15.6987 -16.78487,-32.54278 -6.72681,-42.99599 11.44821,-11.89801 32.68593,5.76583 49.19726,5.76583 16.51132,0 32.68593,-5.76583 49.19725,-5.76583 16.51133,0 32.68598,5.76583 49.19731,5.76583 16.51133,0 49.19726,-5.76583 49.19726,-5.76583 z"
         id="path4873"
         sodipodi:nodetypes="ccscccsssssssaaaac" />
    </g>
  </g>
</svg>
